<svg aria-hidden="true" style="position: absolute; width: 0; height: 0; overflow: hidden;" version="1.1" xmlns="http://www.w3.org/2000/svg" xmlns:xlink="http://www.w3.org/1999/xlink">
<defs>
<symbol id="icon-logoblack" viewBox="0 0 125 32">
<path fill="#f6f6f6" style="fill: var(--color1, #f6f6f6)" d="M0 2.286l14.008 13.862 13.421 13.567v-27.429h-27.429z"></path>
<path fill="#f6f6f6" style="fill: var(--color1, #f6f6f6)" d="M3.821 5.91l10.237 10.139 9.649 9.845h-19.886v-19.984z"></path>
<path fill="#4f2ee8" style="fill: var(--color2, #4f2ee8)" d="M23.771 25.959l-10.238-10.139-9.648-9.845h19.886v19.984z"></path>
<path fill="#4f2ee8" style="fill: var(--color2, #4f2ee8)" d="M7.935 10.024l11.657 11.658h-11.657v-11.657z"></path>
<path fill="#f6f6f6" style="fill: var(--color1, #f6f6f6)" d="M7.935 10.024l11.657 11.658v-11.657h-11.657z"></path>
<path fill="#f3f3f3" style="fill: var(--color3, #f3f3f3)" d="M47.659 12.266c0-2.366-1.749-3.703-4.773-3.703h-6.315v14.709h6.665c3.045 0 4.999-1.461 4.999-4.299 0-2.201-1.317-3.333-2.859-3.6v-0.041c1.214-0.411 2.283-1.255 2.283-3.065zM39.019 14.653v-4.011h3.929c1.461 0 2.263 0.72 2.263 2.016s-0.658 1.995-2.407 1.995h-3.785zM39.019 16.483h4.299c1.543 0 2.469 0.843 2.469 2.345 0 1.378-0.638 2.366-2.736 2.366h-4.032v-4.711zM54.517 23.581c-3.291 0-5.287-2.283-5.287-5.554s1.995-5.554 5.287-5.554c3.291 0 5.287 2.283 5.287 5.554s-1.995 5.554-5.287 5.554zM54.517 21.811c2.057 0 3.127-1.625 3.127-3.785 0-2.181-1.070-3.785-3.127-3.785s-3.127 1.605-3.127 3.785c0 2.16 1.070 3.785 3.127 3.785zM66.027 23.581c-3.291 0-5.287-2.283-5.287-5.554s1.995-5.554 5.287-5.554c3.291 0 5.287 2.283 5.287 5.554s-1.995 5.554-5.287 5.554zM66.027 21.811c2.057 0 3.127-1.625 3.127-3.785 0-2.181-1.070-3.785-3.127-3.785s-3.127 1.605-3.127 3.785c0 2.16 1.070 3.785 3.127 3.785zM72.807 8.563v14.709h2.16v-3.806l1.461-1.378 3.312 5.184h2.592l-4.423-6.603 3.991-3.909h-2.654l-4.279 4.217v-8.414h-2.16zM87.538 16.915c-1.522-0.35-2.695-0.432-2.695-1.502 0-0.741 0.699-1.234 1.995-1.234 1.687 0 2.098 0.843 2.242 1.666h2.098c-0.144-1.831-1.502-3.374-4.361-3.374-2.633 0-4.155 1.378-4.155 3.106 0 2.386 2.263 2.715 3.929 3.106 1.543 0.37 2.798 0.473 2.798 1.79 0 0.658-0.638 1.399-2.139 1.399-2.222 0-2.715-0.967-2.818-2.098h-2.098c0.103 2.222 1.563 3.806 4.958 3.806 2.551 0 4.279-1.255 4.279-3.271 0-2.51-2.098-2.942-4.032-3.394zM98.633 12.472c-1.769 0-2.859 0.823-3.415 1.646h-0.041v-5.554h-2.16v14.709h2.16v-6.398c0-1.563 1.131-2.571 2.715-2.571 1.502 0 2.098 0.905 2.098 2.325v6.645h2.181v-7.262c0-2.407-1.543-3.538-3.538-3.538zM108.795 21.811c-1.913 0-3.045-1.461-3.045-3.23h8.064c0-3.744-1.666-6.11-5.061-6.11-3.168 0-5.163 2.139-5.163 5.554 0 3.291 1.995 5.554 5.266 5.554 2.695 0 4.258-1.522 4.793-3.518h-2.16c-0.185 0.638-0.905 1.749-2.695 1.749zM108.754 14.179c1.749 0 2.901 1.173 2.901 2.798h-5.904c0-1.625 1.255-2.798 3.003-2.798zM115.337 8.563v14.709h2.181v-14.709h-2.181zM124.573 10.333v-1.769c-0.432-0.090-0.929-0.142-1.438-0.144h-0.002c-1.728 0-2.674 0.782-2.674 3.003v1.337h-1.502v1.769h1.502v8.743h2.181v-8.743h1.934v-1.769h-1.934v-1.152c0-1.193 0.535-1.337 1.934-1.275z"></path>
</symbol>
<symbol id="icon-logo" viewBox="0 0 125 32">
<path fill="#f6f6f6" style="fill: var(--color1, #f6f6f6)" d="M0 2.286l14.008 13.862 13.421 13.567v-27.429h-27.429z"></path>
<path fill="#f6f6f6" style="fill: var(--color1, #f6f6f6)" d="M3.821 5.91l10.237 10.139 9.649 9.845h-19.886v-19.984z"></path>
<path fill="#4f2ee8" style="fill: var(--color2, #4f2ee8)" d="M23.771 25.959l-10.237-10.139-9.649-9.845h19.886v19.984z"></path>
<path fill="#4f2ee8" style="fill: var(--color2, #4f2ee8)" d="M7.935 10.024l11.657 11.658h-11.657v-11.657z"></path>
<path fill="#f6f6f6" style="fill: var(--color1, #f6f6f6)" d="M7.935 10.024l11.657 11.658v-11.657h-11.657z"></path>
<path fill="#000" style="fill: var(--color4, #000)" d="M47.659 12.266c0-2.366-1.749-3.703-4.773-3.703h-6.315v14.709h6.665c3.045 0 4.999-1.461 4.999-4.299 0-2.201-1.317-3.333-2.859-3.6v-0.041c1.214-0.411 2.283-1.255 2.283-3.065zM39.019 14.653v-4.011h3.929c1.461 0 2.263 0.72 2.263 2.016s-0.658 1.995-2.407 1.995h-3.785zM39.019 16.483h4.299c1.543 0 2.469 0.843 2.469 2.345 0 1.378-0.638 2.366-2.736 2.366h-4.032v-4.711zM54.517 23.581c-3.291 0-5.287-2.283-5.287-5.554s1.995-5.554 5.287-5.554c3.291 0 5.287 2.283 5.287 5.554s-1.995 5.554-5.287 5.554zM54.517 21.811c2.057 0 3.127-1.625 3.127-3.785 0-2.181-1.070-3.785-3.127-3.785s-3.127 1.605-3.127 3.785c0 2.16 1.070 3.785 3.127 3.785zM66.027 23.581c-3.291 0-5.287-2.283-5.287-5.554s1.995-5.554 5.287-5.554c3.291 0 5.287 2.283 5.287 5.554s-1.995 5.554-5.287 5.554zM66.027 21.811c2.057 0 3.127-1.625 3.127-3.785 0-2.181-1.070-3.785-3.127-3.785s-3.127 1.605-3.127 3.785c0 2.16 1.070 3.785 3.127 3.785zM72.807 8.563v14.709h2.16v-3.806l1.461-1.378 3.312 5.184h2.592l-4.423-6.603 3.991-3.909h-2.654l-4.279 4.217v-8.414h-2.16zM87.538 16.915c-1.522-0.35-2.695-0.432-2.695-1.502 0-0.741 0.699-1.234 1.995-1.234 1.687 0 2.098 0.843 2.242 1.666h2.098c-0.144-1.831-1.502-3.374-4.361-3.374-2.633 0-4.155 1.378-4.155 3.106 0 2.386 2.263 2.715 3.929 3.106 1.543 0.37 2.798 0.473 2.798 1.79 0 0.658-0.638 1.399-2.139 1.399-2.222 0-2.715-0.967-2.818-2.098h-2.098c0.103 2.222 1.563 3.806 4.958 3.806 2.551 0 4.279-1.255 4.279-3.271 0-2.51-2.098-2.942-4.032-3.394zM98.633 12.472c-1.769 0-2.859 0.823-3.415 1.646h-0.041v-5.554h-2.16v14.709h2.16v-6.398c0-1.563 1.131-2.571 2.715-2.571 1.502 0 2.098 0.905 2.098 2.325v6.645h2.181v-7.262c0-2.407-1.543-3.538-3.538-3.538zM108.795 21.811c-1.913 0-3.045-1.461-3.045-3.23h8.064c0-3.744-1.666-6.11-5.061-6.11-3.168 0-5.163 2.139-5.163 5.554 0 3.291 1.995 5.554 5.266 5.554 2.695 0 4.258-1.522 4.793-3.518h-2.16c-0.185 0.638-0.905 1.749-2.695 1.749zM108.754 14.179c1.749 0 2.901 1.173 2.901 2.798h-5.904c0-1.625 1.255-2.798 3.003-2.798zM115.337 8.563v14.709h2.181v-14.709h-2.181zM124.573 10.333v-1.769c-0.432-0.090-0.929-0.142-1.438-0.144h-0.002c-1.728 0-2.674 0.782-2.674 3.003v1.337h-1.502v1.769h1.502v8.743h2.181v-8.743h1.934v-1.769h-1.934v-1.152c0-1.193 0.535-1.337 1.934-1.275z"></path>
</symbol>
<symbol id="icon-arrow_right" viewBox="0 0 32 32">
<path stroke-linejoin="round" stroke-linecap="round" stroke-miterlimit="4" stroke-width="3.2" d="M5.333 16h21.334M26.667 16l-8-8M26.667 16l-8 8"></path>
</symbol>
<symbol id="icon-bag" viewBox="0 0 32 32">
<path d="M25.333 9.333h-4v-1.333c0-2.945-2.388-5.333-5.333-5.333s-5.333 2.388-5.333 5.333v0 1.333h-4c-0 0-0.001 0-0.002 0-0.736 0-1.333 0.597-1.333 1.333 0 0.001 0 0.001 0 0.002v-0 14.666c0 2.209 1.791 4 4 4v0h13.334c2.209 0 4-1.791 4-4v0-14.666c0-0 0-0.001 0-0.002 0-0.736-0.597-1.333-1.333-1.333-0.001 0-0.001 0-0.002 0h0zM13.333 8c0-1.473 1.194-2.667 2.667-2.667s2.667 1.194 2.667 2.667v1.333h-5.334v-1.333zM24 25.333c0 0 0 0.001 0 0.002 0 0.736-0.597 1.333-1.333 1.333h-13.334c-0.736 0-1.333-0.597-1.333-1.333 0-0.001 0-0.001 0-0.002v0-13.333h2.667v1.333c0 0.736 0.597 1.333 1.333 1.333s1.333-0.597 1.333-1.333v0-1.333h5.334v1.333c0.036 0.708 0.619 1.269 1.333 1.269s1.297-0.561 1.333-1.266l0-0.003v-1.333h2.667v13.333z"></path>
</symbol>
<symbol id="icon-book" viewBox="0 0 34 32">
<path d="M32.716 8.869c-0.622-0.332-1.362-0.655-2.128-0.92l-0.112-0.034v18.802c-1.737-0.641-3.52-0.969-5.333-0.969-2.895 0-5.76 0.844-8.381 2.469v-18.912c-2.469-1.454-5.318-2.313-8.381-2.313-2.728 0-5.303 0.688-7.573 1.875-0.503 0.251-0.808 0.797-0.808 1.376v18.88c0 0.906 0.716 1.547 1.524 1.547 0.244 0 0.488-0.062 0.731-0.187 1.844-0.984 3.916-1.61 6.126-1.61 3.154 0 6.065 1.282 8.381 3.126 2.316-1.844 5.227-3.126 8.381-3.126 2.21 0 4.282 0.625 6.126 1.625 0.244 0.125 0.488 0.188 0.731 0.188 0.792 0 1.524-0.641 1.524-1.547v-18.895c0-0.578-0.305-1.125-0.808-1.375zM13.714 26.717c-1.737-0.641-3.52-0.969-5.333-0.969s-3.596 0.328-5.333 0.969v-15.488c1.565-0.701 3.391-1.11 5.313-1.11 0.007 0 0.014 0 0.022 0h-0.001c1.829 0 3.642 0.391 5.333 1.125v15.472zM27.429 1.524l-7.619 7.814v14.847l7.619-7.033v-15.629z"></path>
</symbol>
<symbol id="icon-burger" viewBox="0 0 32 32">
<path stroke-linejoin="round" stroke-linecap="round" stroke-miterlimit="4" stroke-width="2.2857" d="M22.666 13.334h-18.666M28 8h-24M28 18.666h-24M22.666 24h-18.666"></path>
</symbol>
<symbol id="icon-close" viewBox="0 0 32 32">
<path stroke-linejoin="round" stroke-linecap="round" stroke-miterlimit="4" stroke-width="3.4286" d="M24 8l-16 16M8 8l16 16"></path>
</symbol>
<symbol id="icon-down" viewBox="0 0 32 32">
<path d="M15.053 17.868c0.242 0.244 0.576 0.394 0.946 0.394s0.705-0.151 0.946-0.394l0-0 6.108-6.121c0.242-0.243 0.576-0.394 0.946-0.394 0.736 0 1.333 0.597 1.333 1.333 0 0.367-0.148 0.699-0.387 0.94l-6.119 6.121c-0.724 0.723-1.723 1.17-2.827 1.17s-2.103-0.447-2.827-1.17l-6.118-6.121c-0.22-0.237-0.355-0.556-0.355-0.906 0-0.737 0.597-1.334 1.334-1.334 0.353 0 0.674 0.137 0.913 0.361l-0.001-0.001 6.108 6.119z"></path>
</symbol>
<symbol id="icon-gerb" viewBox="0 0 20 32">
<path d="M9.005 30.888c-1.738-1.262-2.991-3.156-3.414-5.351h-5.591v-23.117c2.991 1.443 5.153 4.599 5.388 7.876l0.846 6.493-0.407-0.045c-0.893 0-1.676 0.812-1.676 1.608 0 0.752 0.595 1.383 1.378 1.548l1.018 0.225c1.676-3.051 2.631-6.042 2.631-8.973 0-2.645-0.36-5.291-0.423-7.996 0-1.202 0.486-2.3 1.253-3.156 0.783 0.857 1.253 1.954 1.253 3.156 0 2.706-0.423 5.351-0.423 7.996 0 2.931 0.955 5.922 2.631 8.973l1.018-0.225c0.783-0.165 1.378-0.812 1.378-1.548 0-0.812-0.783-1.608-1.676-1.608l-0.423 0.060 0.846-6.493c0.423-3.277 2.396-6.448 5.388-7.876v23.117h-5.576c-0.423 2.179-1.613 4.148-3.414 5.351-0.423 0.286-0.783 0.631-1.018 1.097-0.219-0.466-0.58-0.812-0.987-1.112zM2.647 17.556c0.235-0.857 0.893-1.608 1.739-2.074l-0.658-5.351c-0.235-1.668-0.955-3.156-2.036-4.374v11.784h0.955v0.015zM5.466 23.929c0-0.812 0.125-1.548 0.298-2.3l-0.783-0.18c-1.143-0.346-2.036-1.202-2.334-2.3h-0.955v4.78h3.775zM9.178 23.929c0-0.977-0.783-1.834-1.801-1.954-0.172 0.631-0.298 1.263-0.298 1.954h2.099zM9.178 25.552h-1.864c0.298 1.263 0.955 2.42 1.864 3.397v-3.397zM11.809 20.547c-0.72-1.262-1.378-2.585-1.801-3.968-0.423 1.383-1.081 2.706-1.801 3.968 0.72 0.165 1.316 0.631 1.801 1.157 0.486-0.526 1.081-0.992 1.801-1.157zM12.952 23.929c0-0.691-0.125-1.323-0.297-1.954-1.018 0.12-1.801 0.977-1.801 1.954h2.099zM12.717 25.552h-1.864v3.397c0.908-0.992 1.566-2.134 1.864-3.397zM18.34 23.929v-4.78h-0.955c-0.298 1.097-1.206 1.954-2.334 2.3l-0.783 0.18c0.172 0.752 0.298 1.488 0.298 2.3h3.774zM18.34 17.556v-11.799c-1.081 1.202-1.864 2.706-2.036 4.374l-0.658 5.351c0.846 0.466 1.504 1.202 1.738 2.074h0.955z"></path>
</symbol>
<symbol id="icon-lock-02" viewBox="0 0 32 32">
<path stroke-linejoin="round" stroke-linecap="round" stroke-miterlimit="4" stroke-width="2.2857" d="M22.666 14.666v-4c0-3.682-2.985-6.666-6.666-6.666s-6.666 2.985-6.666 6.666v0 4M10.4 28h11.2c2.24 0 3.36 0 4.216-0.435 0.756-0.391 1.358-0.992 1.738-1.726l0.011-0.022c0.435-0.856 0.435-1.976 0.435-4.216v-0.534c0-2.24 0-3.36-0.435-4.216-0.391-0.756-0.992-1.358-1.726-1.738l-0.022-0.011c-0.856-0.434-1.976-0.434-4.216-0.434h-11.2c-2.24 0-3.36 0-4.216 0.434-0.756 0.391-1.358 0.992-1.738 1.726l-0.011 0.022c-0.435 0.857-0.435 1.977-0.435 4.217v0.533c0 2.24 0 3.36 0.435 4.216 0.391 0.756 0.992 1.358 1.726 1.738l0.022 0.011c0.856 0.435 1.976 0.435 4.216 0.435z"></path>
</symbol>
<symbol id="icon-mail" viewBox="0 0 32 32">
<path stroke-linejoin="round" stroke-linecap="round" stroke-miterlimit="4" stroke-width="2.2857" d="M28.667 24l-8.857-8M12.191 16l-8.857 8M2.667 9.334l10.886 7.621c0.882 0.617 1.322 0.926 1.802 1.045 0.423 0.106 0.866 0.106 1.29 0 0.479-0.119 0.92-0.427 1.801-1.045l10.887-7.621M9.066 26.666h13.867c2.24 0 3.36 0 4.216-0.435 0.756-0.391 1.358-0.992 1.738-1.726l0.011-0.022c0.434-0.855 0.434-1.976 0.434-4.216v-8.533c0-2.24 0-3.36-0.434-4.217-0.391-0.756-0.992-1.357-1.726-1.737l-0.022-0.011c-0.856-0.435-1.976-0.435-4.217-0.435h-13.864c-2.24 0-3.36 0-4.217 0.435-0.756 0.391-1.357 0.992-1.737 1.726l-0.010 0.022c-0.435 0.855-0.435 1.975-0.435 4.216v8.533c0 2.24 0 3.36 0.435 4.217 0.391 0.756 0.992 1.357 1.726 1.737l0.022 0.011c0.855 0.435 1.975 0.435 4.216 0.435z"></path>
</symbol>
<symbol id="icon-trash" viewBox="0 0 32 32">
<path stroke-linejoin="round" stroke-linecap="round" stroke-miterlimit="4" stroke-width="2.9091" d="M12 4h8M4 8h24M25.334 8l-0.935 14.026c-0.141 2.103-0.211 3.156-0.665 3.953-0.405 0.703-0.997 1.259-1.707 1.61l-0.023 0.010c-0.828 0.4-1.881 0.4-3.99 0.4h-4.026c-2.109 0-3.162 0-3.99-0.4-0.734-0.361-1.326-0.917-1.721-1.601l-0.010-0.019c-0.454-0.797-0.524-1.85-0.665-3.953l-0.935-14.026M13.334 14v6.666M18.666 14v6.666"></path>
</symbol>
<symbol id="icon-triangl" viewBox="0 0 60 32">
<path d="M3.168 3h53.668l-24.124 27.268c-0.659 0.769-1.627 1.258-2.71 1.272l-0.002 0c-1.083-0.015-2.050-0.503-2.704-1.267l-0.004-0.005-24.124-27.268z"></path>
</symbol>
<symbol id="icon-user" viewBox="0 0 32 32">
<path d="M5.334 29.334c0.107-5.81 4.841-10.478 10.666-10.478s10.56 4.669 10.666 10.468l0 0.010h-21.332zM16 17.334c-0.001 0-0.001 0-0.002 0-4.417 0-7.998-3.581-7.998-7.998 0-0.001 0-0.001 0-0.002v0c0-0.001 0-0.001 0-0.002 0-4.417 3.581-7.998 7.998-7.998 0.001 0 0.001 0 0.002 0h-0c0 0 0.001 0 0.002 0 4.417 0 7.998 3.581 7.998 7.998 0 0.001 0 0.001 0 0.002v-0c0 0.001 0 0.001 0 0.002 0 4.417-3.581 7.998-7.998 7.998-0.001 0-0.001 0-0.002 0h0z"></path>
</symbol>
<symbol id="icon-up" viewBox="0 0 32 32">
<path d="M4.5 19.6l11.2-11.233c0.133-0.133 0.278-0.228 0.433-0.283s0.322-0.084 0.5-0.084c0.178 0 0.345 0.028 0.5 0.084s0.3 0.149 0.433 0.283l11.233 11.233c0.311 0.311 0.467 0.7 0.467 1.167s-0.167 0.867-0.5 1.2c-0.333 0.333-0.722 0.5-1.167 0.5s-0.833-0.167-1.167-0.5l-9.8-9.8-9.8 9.8c-0.311 0.311-0.694 0.467-1.149 0.467s-0.851-0.167-1.184-0.5-0.5-0.722-0.5-1.167c0-0.444 0.167-0.833 0.5-1.167z"></path>
<symbol id="icon-github" width="26" height="26" viewBox="0 0 32 32" x="0" y="0">
<path  d="M14.875 0.037c-0.119 0.013-0.488 0.056-0.813 0.094-1.35 0.15-3.238 0.669-4.438 1.219-2.025 0.925-3.544 1.994-5.094 3.594-5.544 5.706-6.050 14.606-1.188 20.837 2.569 3.288 6.137 5.381 10.313 6.044 1.256 0.2 3.431 0.2 4.688 0 3.475-0.55 6.519-2.081 8.956-4.519 5.225-5.2 6.187-13.169 2.369-19.525-1.144-1.912-2.962-3.813-4.825-5.063-2.019-1.35-4.25-2.206-6.688-2.569-0.6-0.087-2.831-0.169-3.281-0.113zM18.063 2.031c2.288 0.35 4.488 1.288 6.431 2.737 0.725 0.537 2.087 1.888 2.613 2.575 1.256 1.669 2.125 3.438 2.581 5.275 1.319 5.281-0.475 10.719-4.694 14.231-1.025 0.863-2.462 1.712-3.756 2.231l-0.55 0.219v-2.131c0-2.337-0.056-2.913-0.337-3.613-0.087-0.212-0.15-0.4-0.144-0.406s0.275-0.1 0.6-0.206c3.012-1.006 4.938-3.125 5.512-6.069 0.125-0.613 0.106-2.35-0.031-3-0.219-1.081-0.575-1.994-1.1-2.806l-0.319-0.5 0.075-0.394c0.113-0.588 0.1-2.112-0.025-2.662-0.219-0.963-0.681-1.563-1.325-1.706-0.813-0.181-2.075 0.231-3.688 1.194l-0.5 0.3-0.719-0.15c-1.856-0.388-4.012-0.356-5.7 0.075l-0.35 0.088-0.481-0.281c-0.713-0.419-1.569-0.844-2.056-1.006-0.644-0.219-1.4-0.313-1.756-0.213-0.594 0.169-1.050 0.781-1.263 1.7-0.125 0.55-0.138 2.075-0.025 2.663l0.075 0.394-0.319 0.5c-0.525 0.813-0.881 1.725-1.1 2.806-0.138 0.65-0.156 2.388-0.031 3 0.575 2.944 2.5 5.063 5.512 6.069 0.325 0.106 0.594 0.2 0.6 0.206s-0.050 0.181-0.137 0.381c-0.081 0.206-0.188 0.569-0.238 0.813-0.081 0.425-0.094 0.438-0.331 0.525-0.394 0.144-1.194 0.119-1.5-0.038-0.387-0.206-0.631-0.431-0.912-0.856-0.669-0.988-1.188-1.5-1.894-1.869-0.388-0.206-0.969-0.356-1.344-0.356h-0.287l0.081 0.856c0.037 0.475 0.075 0.9 0.081 0.938 0 0.044 0.063 0.081 0.144 0.081 0.256 0 0.756 0.288 1.044 0.6 0.156 0.169 0.419 0.512 0.588 0.762 0.169 0.256 0.481 0.625 0.688 0.831 0.8 0.794 2.169 1.212 3.275 1l0.262-0.050v2.531l-0.544-0.219c-6.063-2.438-9.669-8.65-8.738-15.056 0.35-2.4 1.3-4.606 2.862-6.681 0.525-0.688 1.888-2.037 2.612-2.575 2.219-1.663 4.537-2.556 7.4-2.856 0.512-0.050 2.525 0.025 3.156 0.119zM9.438 7.775c0.438 0.138 0.975 0.4 1.719 0.844 0.381 0.225 0.769 0.45 0.869 0.488 0.262 0.119 0.694 0.1 1.45-0.069 1.094-0.244 1.806-0.306 2.956-0.269 0.788 0.031 1.219 0.075 1.788 0.2 0.944 0.213 1.5 0.256 1.75 0.144 0.106-0.044 0.506-0.275 0.9-0.512 0.819-0.488 1.556-0.825 1.925-0.888l0.256-0.037 0.056 0.3c0.081 0.494 0.044 1.762-0.069 2.188-0.188 0.719-0.137 0.944 0.337 1.588 0.406 0.55 0.775 1.331 0.981 2.094 0.144 0.55 0.169 0.744 0.169 1.594 0.006 1.025-0.106 1.656-0.413 2.362-0.675 1.544-2.063 2.762-3.825 3.35-0.663 0.219-1.131 0.325-2.288 0.512-0.531 0.087-0.969 0.163-0.981 0.169-0.019 0.025 0.444 0.725 0.981 1.481 0.525 0.738 0.656 1 0.744 1.469 0.044 0.225 0.069 1.288 0.069 2.719v2.35l-0.45 0.075c-0.712 0.119-1.644 0.194-2.363 0.194s-1.65-0.075-2.356-0.194l-0.456-0.075v-2.313c0-1.294 0.031-2.494 0.063-2.719 0.081-0.488 0.213-0.75 0.75-1.506s1-1.456 0.981-1.481c-0.012-0.006-0.45-0.081-0.981-0.169-1.156-0.188-1.625-0.294-2.287-0.512-1.762-0.587-3.15-1.806-3.825-3.35-0.306-0.706-0.419-1.337-0.412-2.363 0-0.85 0.025-1.044 0.169-1.594 0.206-0.762 0.575-1.544 0.981-2.094 0.475-0.644 0.525-0.869 0.338-1.588-0.113-0.425-0.15-1.694-0.069-2.181 0.056-0.331 0.094-0.344 0.544-0.206z"></path>
</symbol>
<symbol id="icon-linkedin" width="26" height="26" viewBox="0 0 32 32">
<path d="M14.563 0.063c-3.088 0.3-5.938 1.438-8.438 3.362-1.219 0.938-2.8 2.7-3.712 4.138-0.394 0.619-1.163 2.194-1.438 2.944-0.306 0.838-0.637 2.125-0.8 3.119-0.194 1.219-0.194 3.531 0 4.75 0.281 1.725 0.725 3.113 1.481 4.656 0.825 1.681 1.681 2.875 3.056 4.256 1.381 1.375 2.575 2.231 4.256 3.056 1.544 0.756 2.931 1.2 4.656 1.481 1.219 0.194 3.531 0.194 4.75 0 1.725-0.281 3.113-0.725 4.656-1.481 1.681-0.825 2.875-1.681 4.256-3.056 1.375-1.381 2.231-2.575 3.056-4.256 0.55-1.119 0.825-1.85 1.125-2.975 0.394-1.5 0.488-2.319 0.488-4.056s-0.094-2.556-0.488-4.056c-0.3-1.125-0.575-1.856-1.125-2.975-0.825-1.681-1.681-2.875-3.056-4.256-1.381-1.375-2.575-2.231-4.256-3.056-1.538-0.756-2.962-1.206-4.625-1.469-0.919-0.144-2.969-0.212-3.844-0.125zM17.75 1.944c1.475 0.194 3.094 0.669 4.381 1.294 1.494 0.725 2.669 1.563 3.869 2.763 2.275 2.275 3.606 5 4.069 8.313 0.094 0.688 0.094 2.688 0 3.375-0.369 2.65-1.275 4.869-2.837 6.938-0.575 0.762-1.844 2.031-2.606 2.606-2.069 1.563-4.287 2.469-6.938 2.837-0.294 0.044-1.050 0.075-1.688 0.075-1.675 0-2.881-0.194-4.444-0.706-2.125-0.7-3.938-1.819-5.556-3.438-2.275-2.275-3.606-5-4.069-8.313-0.094-0.688-0.094-2.688 0-3.375 0.369-2.65 1.275-4.869 2.838-6.938 0.575-0.763 1.844-2.031 2.606-2.606 2.306-1.737 4.925-2.719 7.812-2.919 0.494-0.031 2.012 0.025 2.563 0.094z"></path>
<path d="M10.938 8.2c-0.25 0.169-0.438 0.5-0.438 0.769s0.244 0.656 0.5 0.787c0.594 0.319 1.313-0.119 1.313-0.8 0-0.506-0.319-0.838-0.838-0.881-0.256-0.019-0.363 0.006-0.537 0.125z"></path>
<path d="M10.981 12.444c-0.162 0.088-0.281 0.213-0.363 0.387-0.113 0.25-0.119 0.469-0.119 4.2 0 3.625 0.006 3.956 0.113 4.156 0.313 0.619 1.213 0.681 1.569 0.106 0.131-0.212 0.131-0.262 0.131-4.275v-4.063l-0.144-0.213c-0.275-0.412-0.75-0.531-1.188-0.3z"></path>
<path d="M15.438 12.431c-0.119 0.063-0.275 0.188-0.344 0.281-0.125 0.169-0.125 0.262-0.144 4.213-0.012 2.931 0.006 4.088 0.056 4.213 0.037 0.1 0.169 0.262 0.287 0.363 0.181 0.163 0.262 0.188 0.556 0.188 0.313 0 0.362-0.019 0.606-0.244l0.262-0.25 0.038-2.144c0.031-1.813 0.050-2.188 0.144-2.425 0.413-1.081 1.344-1.75 2.438-1.75 0.988 0 1.875 0.575 2.306 1.488l0.2 0.419 0.031 2.262c0.031 2.156 0.038 2.269 0.163 2.431 0.231 0.313 0.438 0.425 0.775 0.425s0.544-0.113 0.775-0.425c0.125-0.169 0.131-0.244 0.131-2.431 0-2.169-0.006-2.281-0.144-2.762-0.219-0.775-0.569-1.356-1.194-1.969-0.869-0.863-1.819-1.256-3.038-1.256-0.756 0-1.337 0.137-2.006 0.481-0.3 0.15-0.55 0.275-0.563 0.275s-0.025-0.194-0.025-0.431c0-0.338-0.031-0.469-0.144-0.637-0.269-0.4-0.756-0.537-1.169-0.313z"></path>
</symbol>
<symbol id="icon-post" width="35" height="32" viewBox="0 0 35 32" x="96" y="0">
<path fill="#93abae" d="M7.21 0.424c-0.424 0.231-0.925 0.925-1.195 1.542-0.308 0.694-1.118 1.465-2.198 2.005-2.159 1.080-3.316 2.814-3.624 5.475-0.154 1.157-0.193 5.629-0.116 9.908 0.154 8.675 0.386 9.523 2.699 11.181l1.272 0.887h13.571c15.422 0 14.843 0.116 16.617-3.316 0.848-1.658 0.887-1.928 0.771-11.142-0.116-8.945-0.154-9.523-0.964-10.795-0.925-1.465-2.699-2.699-3.933-2.699-0.501 0-1.002-0.463-1.388-1.311-0.347-0.694-1.041-1.465-1.581-1.735-1.272-0.578-18.93-0.578-19.933 0zM26.14 7.904l0.116 5.051-3.778 2.66c-2.082 1.426-4.164 2.699-4.627 2.814-0.578 0.116-2.082-0.733-5.089-2.814l-4.28-3.007v-9.908l8.79 0.077 8.752 0.116 0.116 5.012zM5.398 8.328v2.12l-1.157-0.81c-0.655-0.463-1.157-1.002-1.157-1.272 0-0.501 1.542-2.198 2.005-2.198 0.154 0 0.308 0.964 0.308 2.159zM31.113 7.017c0.501 0.463 0.887 1.041 0.887 1.311 0 0.463-2.313 2.467-2.814 2.467-0.154 0-0.27-1.041-0.27-2.313 0-2.622 0.578-3.007 2.198-1.465zM8.019 15.614l2.776 1.928-2.776 2.622c-1.542 1.427-3.277 2.93-3.855 3.393l-1.080 0.771v-12.067l1.080 0.733c0.617 0.386 2.352 1.542 3.855 2.622zM32.386 18.545v6.207l-2.737-2.429c-1.504-1.349-3.277-2.93-3.933-3.508-0.887-0.733-1.118-1.157-0.81-1.465 0.655-0.655 6.863-4.973 7.21-5.012 0.154 0 0.27 2.776 0.27 6.207zM14.573 20.241c1.889 1.311 4.048 1.272 5.976-0.039l1.465-0.964 2.39 2.12c1.311 1.157 3.431 3.084 4.704 4.241 3.547 3.316 3.508 3.316-11.219 3.316-11.643 0-14.265-0.231-13.957-1.234 0.116-0.27 8.829-8.328 9.099-8.366 0.077-0.039 0.771 0.386 1.542 0.925z"></path>
</symbol>
<symbol id="icon-unlock" width="32" height="32" viewBox="0 0 32 32" x="144" y="0">
<path fill="#93abae" d="M12.067 1.195c-1.851 0.925-3.817 2.969-4.588 4.819-0.308 0.733-0.54 2.583-0.54 4.125v2.853l-1.542 0.27c-1.928 0.308-4.087 2.159-4.665 4.048-0.231 0.81-0.347 3.354-0.27 6.014 0.116 4.125 0.231 4.781 1.002 5.899 1.812 2.545 2.082 2.583 14.766 2.583h11.373l1.581-1.041c2.39-1.581 2.93-3.393 2.776-9.137-0.154-4.973-0.463-5.783-2.814-7.518-1.002-0.771-1.658-0.81-10.333-0.925l-9.253-0.116 0.154-3.046c0.077-2.313 0.308-3.277 0.925-4.087 1.195-1.658 2.583-2.506 4.318-2.737 2.429-0.308 4.048 0.154 5.822 1.696 1.311 1.118 1.812 1.311 2.313 1.002 1.002-0.655 0.964-1.658-0.193-2.853-2.545-2.66-7.518-3.508-10.834-1.851zM28.029 16.733c1.041 0.887 1.080 1.080 1.195 5.166 0.154 4.819-0.347 6.4-2.159 6.901-1.349 0.386-20.395 0.386-21.745 0-1.735-0.463-2.236-2.005-2.236-6.631 0-4.010 0.039-4.125 1.118-5.243l1.118-1.118h21.629l1.080 0.925z"></path>
</symbol>
</symbol>
</defs>
</svg>
